<svg xmlns="http://www.w3.org/2000/svg" width="24" height="24"><path d="M18.955 11.5A6.745 6.745 0 0 0 13 5.545V4h-1.5v1.55a6.683 6.683 0 0 0-2.078.585l1.148 1.147a5.248 5.248 0 0 1 6.93 4.968 5.134 5.134 0 0 1-.278 1.68l1.148 1.147A6.7 6.7 0 0 0 18.955 13H20.5v-1.5ZM5.5 6.45l1.53 1.53a6.751 6.751 0 0 0-1.485 3.518H4v1.5h1.545a6.745 6.745 0 0 0 5.955 5.955v1.545H13V18.95a6.743 6.743 0 0 0 3.518-1.485l1.529 1.53 1.058-1.057L6.557 5.39Zm9.953 9.953a5.245 5.245 0 0 1-7.358-7.357Z" fill="#333"/></svg>