<svg xmlns="http://www.w3.org/2000/svg" width="36" height="36"><path d="M30.191 16.636A12.263 12.263 0 0 0 19.364 5.809V3h-2.727v2.809a12.15 12.15 0 0 0-3.778 1.064l2.087 2.085A9.541 9.541 0 0 1 27.546 18a9.333 9.333 0 0 1-.505 3.055l2.087 2.085a12.177 12.177 0 0 0 1.064-3.776h2.809v-2.727ZM5.727 7.458l2.782 2.782a12.274 12.274 0 0 0-2.7 6.4H3v2.727h2.809a12.263 12.263 0 0 0 10.827 10.827v2.809h2.727v-2.809a12.26 12.26 0 0 0 6.4-2.7l2.78 2.782 1.924-1.922L7.65 5.536Zm18.1 18.1a9.536 9.536 0 0 1-13.377-13.38Z" fill="#333"/></svg>