<svg xmlns="http://www.w3.org/2000/svg" width="30" height="30" viewBox="0 0 30 30">
  <path id="ic-gps_on-36" d="M541.75,409.3a5.455,5.455,0,1,0,5.455,5.455A5.452,5.452,0,0,0,541.75,409.3Zm12.191,4.091a12.265,12.265,0,0,0-10.827-10.827V399.75h-2.727v2.809a12.263,12.263,0,0,0-10.827,10.827H526.75v2.727h2.809a12.263,12.263,0,0,0,10.827,10.827v2.809h2.727v-2.809a12.263,12.263,0,0,0,10.827-10.827h2.809v-2.727ZM541.75,424.3a9.545,9.545,0,1,1,9.545-9.545A9.54,9.54,0,0,1,541.75,424.3Z" transform="translate(-526.75 -399.75)" fill="#333"/>
</svg>
