<svg xmlns="http://www.w3.org/2000/svg" width="30" height="30"><path d="M27.191 13.636A12.263 12.263 0 0 0 16.364 2.809V0h-2.727v2.809a12.15 12.15 0 0 0-3.778 1.064l2.087 2.085A9.541 9.541 0 0 1 24.546 15a9.333 9.333 0 0 1-.505 3.055l2.087 2.085a12.177 12.177 0 0 0 1.064-3.776h2.809v-2.727ZM2.727 4.458 5.509 7.24a12.274 12.274 0 0 0-2.7 6.4H0v2.727h2.809a12.263 12.263 0 0 0 10.827 10.827v2.809h2.727v-2.809a12.26 12.26 0 0 0 6.4-2.7l2.78 2.782 1.924-1.922L4.65 2.536Zm18.1 18.1A9.536 9.536 0 0 1 7.45 9.178Z" fill="#333"/></svg>