<svg xmlns="http://www.w3.org/2000/svg" width="16.5" height="16.5" viewBox="0 0 16.5 16.5">
  <path id="ic-gps_off-24" d="M578.705,407.25a6.745,6.745,0,0,0-5.955-5.955V399.75h-1.5V401.3a6.683,6.683,0,0,0-2.078.585l1.148,1.147A5.248,5.248,0,0,1,577.25,408a5.134,5.134,0,0,1-.278,1.68l1.148,1.147a6.7,6.7,0,0,0,.585-2.077h1.545v-1.5ZM565.25,402.2l1.53,1.53a6.751,6.751,0,0,0-1.485,3.518H563.75v1.5h1.545a6.745,6.745,0,0,0,5.955,5.955v1.545h1.5V414.7a6.743,6.743,0,0,0,3.518-1.485l1.529,1.53,1.058-1.057-12.548-12.548Zm9.953,9.953a5.245,5.245,0,0,1-7.358-7.357Z" transform="translate(-563.75 -399.75)" fill="#333"/>
</svg>
