<svg xmlns="http://www.w3.org/2000/svg" width="16.268" height="16.268" viewBox="0 0 16.268 16.268">
  <path id="ic-help" d="M10.32,16.014h1.627V14.387H10.32ZM11.134,3a8.134,8.134,0,1,0,8.134,8.134A8.137,8.137,0,0,0,11.134,3Zm0,14.641a6.507,6.507,0,1,1,6.507-6.507A6.516,6.516,0,0,1,11.134,17.641Zm0-11.387A3.253,3.253,0,0,0,7.88,9.507H9.507a1.627,1.627,0,1,1,3.254,0c0,1.627-2.44,1.423-2.44,4.067h1.627c0-1.83,2.44-2.033,2.44-4.067A3.253,3.253,0,0,0,11.134,6.254Z" transform="translate(-3 -3)" fill="#333"/>
</svg>
