<svg xmlns="http://www.w3.org/2000/svg" width="30" height="30" viewBox="0 0 30 30">
  <path id="ic-gps_off-36" d="M590.941,413.386a12.263,12.263,0,0,0-10.827-10.827V399.75h-2.727v2.809a12.15,12.15,0,0,0-3.778,1.064l2.087,2.085a9.541,9.541,0,0,1,12.6,9.042,9.333,9.333,0,0,1-.505,3.055l2.087,2.085a12.177,12.177,0,0,0,1.064-3.776h2.809v-2.727Zm-24.464-9.178,2.782,2.782a12.274,12.274,0,0,0-2.7,6.4H563.75v2.727h2.809a12.263,12.263,0,0,0,10.827,10.827v2.809h2.727v-2.809a12.26,12.26,0,0,0,6.4-2.7l2.78,2.782,1.924-1.922L568.4,402.286Zm18.1,18.1A9.536,9.536,0,0,1,571.2,408.928Z" transform="translate(-563.75 -399.75)" fill="#333"/>
</svg>
