<svg xmlns="http://www.w3.org/2000/svg" width="14.7" height="16.268" viewBox="0 0 14.7 16.268">
  <path id="ic-share" d="M15.25,13.5a2.378,2.378,0,0,0-1.6.629L7.826,10.738a2.673,2.673,0,0,0,.074-.572A2.673,2.673,0,0,0,7.826,9.6l5.758-3.357A2.445,2.445,0,1,0,12.8,4.45a2.673,2.673,0,0,0,.073.572L7.116,8.378a2.45,2.45,0,1,0,0,3.577l5.815,3.4a2.3,2.3,0,0,0-.065.531A2.385,2.385,0,1,0,15.25,13.5Zm0-9.865a.817.817,0,1,1-.817.817A.819.819,0,0,1,15.25,3.633Zm-9.8,7.35a.817.817,0,1,1,.817-.817A.819.819,0,0,1,5.45,10.983Zm9.8,5.733a.817.817,0,1,1,.817-.817A.819.819,0,0,1,15.25,16.716Z" transform="translate(-3 -2)" fill="#333"/>
</svg>
