<svg xmlns="http://www.w3.org/2000/svg" width="14.987" height="12.18" viewBox="0 0 14.987 12.18">
  <path id="ic-twitter-24" d="M14.987,3.69a6.139,6.139,0,0,1-1.766.484,3.08,3.08,0,0,0,1.352-1.7,6.16,6.16,0,0,1-1.953.746,3.077,3.077,0,0,0-5.24,2.8A8.729,8.729,0,0,1,1.043,2.811a3.079,3.079,0,0,0,.951,4.105A3.062,3.062,0,0,1,.6,6.531,3.077,3.077,0,0,0,3.069,9.585a3.082,3.082,0,0,1-1.389.052,3.077,3.077,0,0,0,2.873,2.135A6.182,6.182,0,0,1,0,13.046a8.7,8.7,0,0,0,4.713,1.381,8.7,8.7,0,0,0,8.739-9.146A6.26,6.26,0,0,0,14.987,3.69Z" transform="translate(0 -2.248)" fill="#333"/>
</svg>
