<svg xmlns="http://www.w3.org/2000/svg" width="24" height="24"><path d="M15.5 14.333a1.585 1.585 0 0 0-1.067.419l-3.882-2.259a1.507 1.507 0 0 0 0-.762l3.838-2.238a1.63 1.63 0 1 0-.523-1.192 1.782 1.782 0 0 0 .049.381l-3.838 2.237a1.633 1.633 0 1 0 0 2.385l3.876 2.263a1.536 1.536 0 0 0-.044.354 1.59 1.59 0 1 0 1.59-1.59Zm0-6.577a.544.544 0 1 1-.544.544.546.546 0 0 1 .544-.544Zm-6.533 4.9a.544.544 0 1 1 .544-.544.546.546 0 0 1-.545.544Zm6.533 3.822a.544.544 0 1 1 .544-.544.546.546 0 0 1-.544.544Z" fill="#333"/></svg>