<svg xmlns="http://www.w3.org/2000/svg" width="36" height="36"><path d="M23.25 21.5a2.378 2.378 0 0 0-1.6.629l-5.824-3.391a2.673 2.673 0 0 0 .074-.572 2.673 2.673 0 0 0-.074-.566l5.758-3.357a2.445 2.445 0 1 0-.784-1.793 2.673 2.673 0 0 0 .073.572l-5.757 3.356a2.45 2.45 0 1 0 0 3.577l5.815 3.4a2.3 2.3 0 0 0-.065.531A2.385 2.385 0 1 0 23.25 21.5Zm0-9.865a.817.817 0 1 1-.817.817.819.819 0 0 1 .817-.819Zm-9.8 7.35a.817.817 0 1 1 .817-.817.819.819 0 0 1-.817.815Zm9.8 5.733a.817.817 0 1 1 .817-.817.819.819 0 0 1-.817.815Z" fill="#333"/></svg>