<svg xmlns="http://www.w3.org/2000/svg" width="36" height="36"><path d="M30 10.309a9.831 9.831 0 0 1-2.828.775 4.932 4.932 0 0 0 2.165-2.724 9.864 9.864 0 0 1-3.127 1.192 4.927 4.927 0 0 0-8.391 4.49A13.978 13.978 0 0 1 7.671 8.901a4.93 4.93 0 0 0 1.523 6.574 4.9 4.9 0 0 1-2.229-.616 4.927 4.927 0 0 0 3.949 4.893 4.935 4.935 0 0 1-2.224.084 4.928 4.928 0 0 0 4.6 3.416A9.9 9.9 0 0 1 6 25.292a13.939 13.939 0 0 0 7.548 2.212 13.925 13.925 0 0 0 13.995-14.646A10.025 10.025 0 0 0 30 10.309Z" fill="#333"/></svg>