<svg xmlns="http://www.w3.org/2000/svg" width="14.987" height="12.18"><path d="M14.987 1.442a6.139 6.139 0 0 1-1.766.484 3.08 3.08 0 0 0 1.352-1.7 6.16 6.16 0 0 1-1.953.746 3.077 3.077 0 0 0-5.24 2.8A8.729 8.729 0 0 1 1.043.563a3.079 3.079 0 0 0 .951 4.105A3.062 3.062 0 0 1 .6 4.283a3.077 3.077 0 0 0 2.469 3.054 3.082 3.082 0 0 1-1.389.052 3.077 3.077 0 0 0 2.873 2.135A6.182 6.182 0 0 1 0 10.798a8.7 8.7 0 0 0 4.713 1.381 8.7 8.7 0 0 0 8.739-9.146 6.26 6.26 0 0 0 1.535-1.591Z" fill="#333"/></svg>